<svg width="24" height="24" viewBox="0 0 24 24" fill="none" xmlns="http://www.w3.org/2000/svg">
<path d="M9 2C8.44772 2 8 2.44772 8 3V6.75C8 7.01522 8.10536 7.26957 8.29289 7.45711L11.2929 10.4571C11.6834 10.8476 12.3166 10.8476 12.7071 10.4571L15.7071 7.45711C15.8946 7.26957 16 7.01522 16 6.75V3C16 2.44772 15.5523 2 15 2H9Z" fill="#EDEDED"/>
<path d="M3 8C2.44772 8 2 8.44772 2 9V15C2 15.2652 2.10536 15.5196 2.29289 15.7071C2.48043 15.8946 2.73478 16 3 16H6.75C7.01522 16 7.26957 15.8946 7.45711 15.7071L10.4571 12.7071C10.8476 12.3166 10.8476 11.6834 10.4571 11.2929L7.45711 8.29289C7.26957 8.10536 7.01522 8 6.75 8H3Z" fill="#EDEDED"/>
<path d="M17.25 8C16.9848 8 16.7304 8.10536 16.5429 8.29289L13.5429 11.2929C13.1524 11.6834 13.1524 12.3166 13.5429 12.7071L16.5429 15.7071C16.7304 15.8946 16.9848 16 17.25 16H21C21.5523 16 22 15.5523 22 15V9C22 8.44772 21.5523 8 21 8H17.25Z" fill="#EDEDED"/>
<path d="M12.7071 13.5429C12.3166 13.1524 11.6834 13.1524 11.2929 13.5429L8.29289 16.5429C8.10536 16.7304 8 16.9848 8 17.25V21C8 21.5523 8.44772 22 9 22H15C15.5523 22 16 21.5523 16 21V17.25C16 16.9848 15.8946 16.7304 15.7071 16.5429L12.7071 13.5429Z" fill="#EDEDED"/>
</svg>
